<?xml version="1.0" encoding="UTF-8" standalone="no"?>
<!DOCTYPE svg PUBLIC "-//W3C//DTD SVG 1.1//EN"
 "http://www.w3.org/Graphics/SVG/1.1/DTD/svg11.dtd">
<!-- Generated by graphviz version 2.43.0 (0)
 -->
<!-- Title: %3 Pages: 1 -->
<svg width="134pt" height="188pt"
 viewBox="0.00 0.00 134.00 188.00" xmlns="http://www.w3.org/2000/svg" xmlns:xlink="http://www.w3.org/1999/xlink">
<g id="graph0" class="graph" transform="scale(1 1) rotate(0) translate(4 184)">
<title>%3</title>
<polygon fill="white" stroke="transparent" points="-4,4 -4,-184 130,-184 130,4 -4,4"/>
<!-- 3 -->
<g id="node1" class="node">
<title>3</title>
<ellipse fill="none" stroke="black" cx="31" cy="-90" rx="27" ry="18"/>
<text text-anchor="middle" x="31" y="-86.3" font-family="Times,serif" font-size="14.00">3</text>
</g>
<!-- 4 -->
<g id="node2" class="node">
<title>4</title>
<ellipse fill="none" stroke="black" cx="27" cy="-18" rx="27" ry="18"/>
<text text-anchor="middle" x="27" y="-14.3" font-family="Times,serif" font-size="14.00">4</text>
</g>
<!-- 3&#45;&gt;4 -->
<g id="edge1" class="edge">
<title>3&#45;&gt;4</title>
<path fill="none" stroke="black" d="M30.01,-71.7C29.57,-63.98 29.04,-54.71 28.55,-46.11"/>
<polygon fill="black" stroke="black" points="32.04,-45.89 27.98,-36.1 25.05,-46.29 32.04,-45.89"/>
</g>
<!-- 1 -->
<g id="node3" class="node">
<title>1</title>
<ellipse fill="none" stroke="black" cx="62" cy="-162" rx="27" ry="18"/>
<text text-anchor="middle" x="62" y="-158.3" font-family="Times,serif" font-size="14.00">1</text>
</g>
<!-- 1&#45;&gt;3 -->
<g id="edge2" class="edge">
<title>1&#45;&gt;3</title>
<path fill="none" stroke="black" d="M54.65,-144.41C50.99,-136.13 46.47,-125.92 42.36,-116.66"/>
<polygon fill="black" stroke="black" points="45.54,-115.2 38.29,-107.47 39.14,-118.03 45.54,-115.2"/>
</g>
<!-- 2 -->
<g id="node4" class="node">
<title>2</title>
<ellipse fill="none" stroke="black" cx="99" cy="-18" rx="27" ry="18"/>
<text text-anchor="middle" x="99" y="-14.3" font-family="Times,serif" font-size="14.00">2</text>
</g>
<!-- 1&#45;&gt;2 -->
<g id="edge3" class="edge">
<title>1&#45;&gt;2</title>
<path fill="none" stroke="black" d="M66.39,-144.15C72.73,-119.81 84.52,-74.57 92.05,-45.67"/>
<polygon fill="black" stroke="black" points="95.48,-46.38 94.62,-35.82 88.71,-44.62 95.48,-46.38"/>
</g>
</g>
</svg>
